%TF.GenerationSoftware,KiCad,Pcbnew,(6.0.11)*%
%TF.CreationDate,2023-06-01T10:53:08+02:00*%
%TF.ProjectId,Project_V11_Final,50726f6a-6563-4745-9f56-31315f46696e,V11*%
%TF.SameCoordinates,Original*%
%TF.FileFunction,Plated,1,4,PTH,Drill*%
%TF.FilePolarity,Positive*%
%FSLAX46Y46*%
G04 Gerber Fmt 4.6, Leading zero omitted, Abs format (unit mm)*
G04 Created by KiCad (PCBNEW (6.0.11)) date 2023-06-01 10:53:08*
%MOMM*%
%LPD*%
G01*
G04 APERTURE LIST*
%TA.AperFunction,ViaDrill*%
%ADD10C,0.300000*%
%TD*%
%TA.AperFunction,ViaDrill*%
%ADD11C,0.400000*%
%TD*%
%TA.AperFunction,ViaDrill*%
%ADD12C,0.500000*%
%TD*%
%TA.AperFunction,ComponentDrill*%
%ADD13C,1.000000*%
%TD*%
%TA.AperFunction,ComponentDrill*%
%ADD14C,1.100000*%
%TD*%
%TA.AperFunction,ComponentDrill*%
%ADD15C,3.500000*%
%TD*%
G04 APERTURE END LIST*
D10*
X59100000Y-135300000D03*
X129700000Y-140300000D03*
X142400000Y-140500000D03*
X185000000Y-133300000D03*
X189100000Y-134700000D03*
X196400000Y-134700000D03*
X201800000Y-134700000D03*
X208900000Y-134800000D03*
X209795852Y-57884812D03*
X218800000Y-132600000D03*
X240160000Y-60200000D03*
X241310000Y-57300000D03*
D11*
X18520000Y-102620000D03*
X18580000Y-74620000D03*
X18660000Y-112660000D03*
X18840000Y-59940000D03*
X18840000Y-137620000D03*
X20770000Y-131270000D03*
X20780000Y-67440000D03*
X20860000Y-96520000D03*
X20870000Y-105820000D03*
X20870000Y-115210000D03*
X20910000Y-121610000D03*
X20920000Y-90470000D03*
X21370000Y-140580000D03*
X21850000Y-53250000D03*
X21850000Y-81750000D03*
X21850000Y-109900000D03*
X22360000Y-46170000D03*
X24330000Y-67960000D03*
X24690000Y-59450000D03*
X24850000Y-63290000D03*
X25060000Y-54260000D03*
X25220000Y-101000000D03*
X25620000Y-88040000D03*
X25760000Y-94100000D03*
X25770000Y-122260000D03*
X26200000Y-75330000D03*
X26260000Y-105890000D03*
X26590000Y-145110000D03*
X27280000Y-132200000D03*
X27850000Y-114250000D03*
X28060000Y-118180000D03*
X28690000Y-112180000D03*
X29500000Y-69900000D03*
X29900000Y-66000000D03*
X30670000Y-75630000D03*
X31070000Y-103730000D03*
X31080000Y-112120000D03*
X31250000Y-117190000D03*
X31450000Y-126450000D03*
X31810000Y-57280000D03*
X31910000Y-87110000D03*
X32000000Y-96650000D03*
X32010000Y-150330000D03*
X32110000Y-138410000D03*
X32770000Y-124590000D03*
X33130000Y-95410000D03*
X34020000Y-98230000D03*
X35110000Y-91950000D03*
X35210000Y-86760000D03*
X35330000Y-114510000D03*
X35460000Y-57280000D03*
X35510000Y-119700000D03*
X35790000Y-108310000D03*
X36540000Y-134760000D03*
X38130000Y-90070000D03*
X38310000Y-117770000D03*
X38690000Y-97670000D03*
X39340000Y-102910000D03*
X41670000Y-126820000D03*
X42070000Y-61400000D03*
X42070000Y-69180000D03*
X42687499Y-113205650D03*
X42977500Y-84893650D03*
X42987499Y-112105650D03*
X43037499Y-109805650D03*
X43114499Y-56363650D03*
X43120503Y-110801700D03*
X43277500Y-83793650D03*
X43300000Y-70900000D03*
X43327500Y-81493650D03*
X43410504Y-82489700D03*
X43414499Y-55263650D03*
X43464499Y-52963650D03*
X43547503Y-53959700D03*
X43840000Y-43990000D03*
X45901644Y-126695546D03*
X46119600Y-98610750D03*
X46175500Y-69888500D03*
X46484144Y-124482546D03*
X46635000Y-96330650D03*
X46758000Y-67675500D03*
X47066002Y-120629502D03*
X47235144Y-126034546D03*
X47307172Y-92563025D03*
X47386000Y-97882650D03*
X47509000Y-69227500D03*
X47536144Y-123748546D03*
X47550000Y-64050000D03*
X47687000Y-95596650D03*
X47810000Y-66941500D03*
X48150000Y-99500000D03*
X48938644Y-125272546D03*
X48996800Y-123024046D03*
X49089500Y-97120650D03*
X49147656Y-94872150D03*
X49212500Y-68465500D03*
X49267144Y-115202046D03*
X49270656Y-66217000D03*
X49418000Y-87050150D03*
X49521144Y-116218046D03*
X49521144Y-119393046D03*
X49541000Y-58395000D03*
X49672000Y-88066150D03*
X49672000Y-91241150D03*
X49795000Y-59411000D03*
X49795000Y-62586000D03*
X49968135Y-117112029D03*
X50029144Y-118377046D03*
X50118991Y-88960133D03*
X50140000Y-146390000D03*
X50180000Y-90225150D03*
X50241991Y-60304983D03*
X50303000Y-61570000D03*
X50870000Y-99780000D03*
X51045144Y-120028046D03*
X51069000Y-92003150D03*
X51319000Y-63221000D03*
X52050000Y-85780000D03*
X52050000Y-114030000D03*
X52140000Y-42120000D03*
X52140000Y-71220000D03*
X52550000Y-57470000D03*
X54180000Y-133680000D03*
X54770000Y-99610000D03*
X54770000Y-140380000D03*
X56560000Y-151970000D03*
X57190000Y-114030000D03*
X58250000Y-146440000D03*
X58490000Y-70870000D03*
X58520000Y-57300000D03*
X60330000Y-99385250D03*
X60620000Y-86100000D03*
X60630000Y-73580000D03*
X61800000Y-114170000D03*
X61850000Y-127534046D03*
X62050000Y-103450000D03*
X64330000Y-99490000D03*
X64420000Y-134760000D03*
X65430000Y-114040000D03*
X65620000Y-86130000D03*
X66050000Y-43780000D03*
X67210000Y-103600000D03*
X68530000Y-73780000D03*
X69250000Y-99770000D03*
X69890000Y-71010000D03*
X70900000Y-137500000D03*
X71550000Y-45860000D03*
X72237499Y-113105650D03*
X72527500Y-84793650D03*
X72537499Y-112005650D03*
X72540000Y-103500000D03*
X72664499Y-56263650D03*
X72670503Y-110701700D03*
X72827500Y-83693650D03*
X72960504Y-82389700D03*
X72964499Y-55163650D03*
X73037499Y-109705650D03*
X73097503Y-53859700D03*
X73170000Y-99770000D03*
X73327500Y-81393650D03*
X73464499Y-52863650D03*
X75000000Y-101100000D03*
X75240000Y-70370000D03*
X75322500Y-126549500D03*
X75439001Y-98610750D03*
X75650000Y-72050000D03*
X75905000Y-124336500D03*
X76021501Y-96397750D03*
X76300000Y-120800000D03*
X76500000Y-64035500D03*
X76587500Y-92937500D03*
X76656000Y-125888500D03*
X76772501Y-97949750D03*
X76820000Y-69580000D03*
X76957000Y-123602500D03*
X77073501Y-95663750D03*
X77470000Y-67195500D03*
X77590000Y-99380000D03*
X77810000Y-57310000D03*
X78330000Y-68835500D03*
X78359500Y-125126500D03*
X78417656Y-122878000D03*
X78476001Y-97187750D03*
X78534157Y-94939250D03*
X78688000Y-115056000D03*
X78751000Y-58395000D03*
X78804501Y-87117250D03*
X78876203Y-67998442D03*
X78942000Y-116072000D03*
X78942000Y-119247000D03*
X78990000Y-66525500D03*
X79005000Y-59411000D03*
X79005000Y-62586000D03*
X79058501Y-88133250D03*
X79058501Y-91308250D03*
X79300000Y-71210000D03*
X79388991Y-116965983D03*
X79450000Y-118231000D03*
X79451991Y-60304983D03*
X79505492Y-89027233D03*
X79513000Y-61570000D03*
X79566501Y-90292250D03*
X80369499Y-119965650D03*
X80400000Y-73580000D03*
X80500000Y-114040000D03*
X80529000Y-63221000D03*
X80582501Y-91943250D03*
X80890000Y-42330000D03*
X81830000Y-103600000D03*
X82200000Y-86100000D03*
X83090000Y-57200000D03*
X83950000Y-125250000D03*
X85170000Y-70390000D03*
X85500000Y-97200000D03*
X86110000Y-51440000D03*
X86590000Y-86300000D03*
X86700000Y-112410000D03*
X86790000Y-69570000D03*
X87070000Y-79750000D03*
X87720000Y-57280000D03*
X87990000Y-88930000D03*
X88570000Y-73890000D03*
X88590000Y-110440000D03*
X89560000Y-67770000D03*
X90340000Y-107970000D03*
X90490000Y-114120000D03*
X90580000Y-151970000D03*
X96600000Y-55370000D03*
X98610000Y-138240000D03*
X99430000Y-114060000D03*
X99460000Y-100130000D03*
X99490000Y-120760000D03*
X99500000Y-135300000D03*
X99950000Y-51940000D03*
X100190000Y-130230000D03*
X100560000Y-143260000D03*
X100610000Y-149440000D03*
X101210000Y-110030000D03*
X101400000Y-58110000D03*
X102040000Y-75500000D03*
X102840000Y-121700000D03*
X104020000Y-113830000D03*
X105810000Y-149400000D03*
X106310000Y-79240000D03*
X106510000Y-42250000D03*
X107660000Y-122170000D03*
X107780000Y-107950000D03*
X108130000Y-141030000D03*
X108950000Y-60580000D03*
X108950000Y-62090000D03*
X109020000Y-63630000D03*
X109050000Y-47840000D03*
X109090000Y-46390000D03*
X109110000Y-49120000D03*
X109110000Y-65240000D03*
X109210000Y-45130000D03*
X109400000Y-135300000D03*
X110140000Y-48520000D03*
X110250000Y-60490000D03*
X110250000Y-64770000D03*
X110630000Y-53920000D03*
X111250000Y-113940000D03*
X111370000Y-130230000D03*
X111610000Y-109030000D03*
X111920000Y-85380000D03*
X112190000Y-68290000D03*
X113660000Y-80840000D03*
X114300000Y-72900000D03*
X114700000Y-119360000D03*
X114800000Y-135300000D03*
X115130000Y-124820000D03*
X115430000Y-54610000D03*
X116180000Y-109030000D03*
X116190000Y-82450000D03*
X116600000Y-113940000D03*
X118730000Y-71500000D03*
X119190000Y-130350000D03*
X119210000Y-94800000D03*
X119290000Y-81920000D03*
X119290000Y-108390000D03*
X119360000Y-112800000D03*
X120570000Y-110150000D03*
X120610000Y-119480000D03*
X120700000Y-126900000D03*
X120800000Y-83900000D03*
X120890000Y-124700000D03*
X121000000Y-41490000D03*
X121961500Y-134438500D03*
X122110000Y-93854500D03*
X122140000Y-111500000D03*
X123050000Y-151920000D03*
X123310000Y-109610000D03*
X123350000Y-81870000D03*
X123400000Y-73600000D03*
X123580000Y-113610000D03*
X123670000Y-119350000D03*
X123700000Y-84000000D03*
X124200000Y-68690000D03*
X124640000Y-124760000D03*
X125010000Y-111610000D03*
X125040000Y-93560000D03*
X125180000Y-106710000D03*
X125190000Y-57960000D03*
X125600000Y-132800000D03*
X126500000Y-94500000D03*
X126660000Y-112280000D03*
X126790000Y-49270000D03*
X126820000Y-119390000D03*
X127050000Y-82030000D03*
X127200000Y-84100000D03*
X127300000Y-132000000D03*
X127400000Y-52320000D03*
X128310000Y-93510000D03*
X128330000Y-106560000D03*
X128330000Y-113600000D03*
X129000000Y-73500000D03*
X129540000Y-47740000D03*
X129650000Y-128550000D03*
X129900000Y-69900000D03*
X130100000Y-94300000D03*
X130150000Y-53770000D03*
X130160000Y-83160000D03*
X130160000Y-106790000D03*
X130430000Y-119210000D03*
X130650000Y-113860000D03*
X130700000Y-84700000D03*
X130760000Y-41950000D03*
X131670000Y-58720000D03*
X132090000Y-106310000D03*
X132090000Y-112910000D03*
X132100000Y-130200000D03*
X132150000Y-93500000D03*
X132150000Y-127450000D03*
X132460000Y-83670500D03*
X133150000Y-69360000D03*
X133670000Y-119300000D03*
X133730000Y-107040000D03*
X134100000Y-84800000D03*
X134100000Y-94200000D03*
X135200000Y-128000000D03*
X135400000Y-85150000D03*
X135410000Y-92360000D03*
X135450000Y-105970000D03*
X135480000Y-113400000D03*
X135550000Y-53080000D03*
X136600000Y-93800000D03*
X136950000Y-106700000D03*
X137760000Y-74310000D03*
X137900000Y-69600000D03*
X138130000Y-114010000D03*
X138230000Y-105400000D03*
X138290000Y-86644500D03*
X138290000Y-92030000D03*
X138520000Y-127410000D03*
X139540000Y-125930000D03*
X139740000Y-106370000D03*
X140000000Y-93600000D03*
X140180000Y-68870000D03*
X140220000Y-41460000D03*
X140520000Y-118980000D03*
X140800000Y-127600000D03*
X141160000Y-54410000D03*
X141450000Y-88220000D03*
X141500000Y-114200000D03*
X141550000Y-91930000D03*
X141560000Y-104300000D03*
X141900000Y-125050000D03*
X142100000Y-131700000D03*
X142360000Y-49740000D03*
X143100000Y-94100000D03*
X143140000Y-106210000D03*
X143390000Y-125360000D03*
X143430000Y-41460000D03*
X144510000Y-92020000D03*
X144510000Y-95200000D03*
X144540000Y-114570000D03*
X144710000Y-124230000D03*
X145610000Y-119130000D03*
X145820000Y-105880000D03*
X146160000Y-124250000D03*
X146600000Y-129900000D03*
X147390000Y-92010000D03*
X147490000Y-96290000D03*
X147510000Y-115800000D03*
X148000000Y-133600000D03*
X148760000Y-119470000D03*
X148780000Y-105940000D03*
X148800000Y-127300000D03*
X148940000Y-115190000D03*
X150160000Y-91990000D03*
X150180000Y-97600000D03*
X150500000Y-131700000D03*
X150550000Y-116030000D03*
X150710000Y-151920000D03*
X150900000Y-129400000D03*
X151640000Y-120320000D03*
X152140000Y-77200000D03*
X152300000Y-98500000D03*
X152770000Y-36520000D03*
X153300000Y-132200000D03*
X153490000Y-100750000D03*
X153490000Y-118080000D03*
X153600000Y-91020000D03*
X153970000Y-40790000D03*
X154900000Y-115800000D03*
X155710000Y-48540000D03*
X156200000Y-122500000D03*
X156450000Y-75200000D03*
X156680000Y-116360000D03*
X156760000Y-76360000D03*
X156760000Y-106350000D03*
X156800000Y-132100000D03*
X156830000Y-89620000D03*
X157580000Y-36800000D03*
X157900000Y-100100000D03*
X159280000Y-90990000D03*
X159410000Y-107230000D03*
X159420000Y-85420000D03*
X159510000Y-118830000D03*
X159750000Y-76220000D03*
X160300000Y-130000000D03*
X160300000Y-132400000D03*
X160400000Y-74130000D03*
X160600000Y-102200000D03*
X161800000Y-119200000D03*
X161850000Y-106230000D03*
X161920000Y-91590000D03*
X162100000Y-121000000D03*
X163010000Y-68760000D03*
X163200000Y-99300000D03*
X163480000Y-79274500D03*
X163700000Y-106500000D03*
X163750000Y-65680000D03*
X163880000Y-70590000D03*
X164640000Y-103950000D03*
X165020000Y-72450000D03*
X165795000Y-79145000D03*
X166500000Y-129700000D03*
X167940000Y-67590000D03*
X168200000Y-116200000D03*
X168300000Y-133500000D03*
X169400000Y-131800000D03*
X169690000Y-48700000D03*
X170060000Y-36570000D03*
X171100000Y-128700000D03*
X172160000Y-44500000D03*
X172250000Y-133450000D03*
X172680000Y-65250000D03*
X173600000Y-99930000D03*
X174400000Y-131300000D03*
X175470000Y-78870000D03*
X175600000Y-48700000D03*
X175840000Y-106080000D03*
X176350000Y-102540000D03*
X176370000Y-71220000D03*
X176500000Y-133700000D03*
X177883628Y-115107468D03*
X178281000Y-87337000D03*
X178810000Y-44730000D03*
X178899628Y-116758468D03*
X178960637Y-118023485D03*
X179099520Y-89051500D03*
X179160529Y-90316517D03*
X179191346Y-60600979D03*
X179252355Y-61865996D03*
X179407628Y-115742468D03*
X179407628Y-118917468D03*
X179594165Y-58805835D03*
X179607520Y-88035500D03*
X179607520Y-91210500D03*
X179661628Y-119933468D03*
X179699346Y-62759979D03*
X179861520Y-92226500D03*
X179931972Y-112111468D03*
X179953346Y-63775979D03*
X179990128Y-109862968D03*
X180131864Y-84404500D03*
X180190020Y-82156000D03*
X180223690Y-55953979D03*
X180281846Y-53705479D03*
X180500000Y-132000000D03*
X180750000Y-152000000D03*
X180794835Y-59694835D03*
X181392628Y-111386968D03*
X181592520Y-83680000D03*
X181684346Y-55229479D03*
X181693628Y-109100968D03*
X181800000Y-86400000D03*
X181800000Y-114292968D03*
X181893520Y-81394000D03*
X181900000Y-58000000D03*
X181900000Y-143900000D03*
X181985346Y-52943479D03*
X182444628Y-110652968D03*
X182644520Y-82946000D03*
X182736346Y-54495479D03*
X183027128Y-108439968D03*
X183180000Y-36280000D03*
X183227020Y-80669500D03*
X183410000Y-52050000D03*
X183900000Y-130300000D03*
X184450000Y-106730000D03*
X185280000Y-78800000D03*
X185395989Y-97700000D03*
X185705040Y-96646005D03*
X185715622Y-124371692D03*
X185838044Y-95342055D03*
X185840000Y-66180000D03*
X185848626Y-123067742D03*
X185900000Y-125400000D03*
X186138044Y-94242055D03*
X186148626Y-121967742D03*
X187650000Y-65750000D03*
X188100000Y-66850000D03*
X188690000Y-136195000D03*
X188796050Y-68153950D03*
X188800000Y-130300000D03*
X188900000Y-127200000D03*
X188946050Y-69196050D03*
X190170000Y-105500000D03*
X190680000Y-36090000D03*
X191260000Y-76500000D03*
X194000000Y-134000000D03*
X194700000Y-138400000D03*
X194990000Y-143580000D03*
X198220000Y-79470000D03*
X198250000Y-91000000D03*
X198290000Y-107079500D03*
X199500000Y-64710000D03*
X199800000Y-128000000D03*
X200930000Y-35990000D03*
X201310000Y-44730000D03*
X201500000Y-136700000D03*
X201750000Y-99350000D03*
X204880000Y-118730000D03*
X204900000Y-91150000D03*
X205560000Y-64810000D03*
X205800000Y-100400000D03*
X205910000Y-79490000D03*
X206204628Y-115107468D03*
X206348000Y-87337000D03*
X206430000Y-77460000D03*
X207220628Y-116758468D03*
X207263500Y-89140400D03*
X207281637Y-118023485D03*
X207324509Y-90405417D03*
X207391123Y-62028040D03*
X207438540Y-60710835D03*
X207600000Y-139200000D03*
X207610000Y-143500000D03*
X207728628Y-115742468D03*
X207728628Y-118917468D03*
X207770000Y-149770000D03*
X207771500Y-88124400D03*
X207771500Y-91299400D03*
X207820000Y-151930000D03*
X207901719Y-62887282D03*
X207946540Y-59694835D03*
X207980000Y-111784500D03*
X207982628Y-119933468D03*
X208025500Y-92315400D03*
X208200540Y-63885835D03*
X208210000Y-109484500D03*
X208295844Y-84493400D03*
X208391000Y-82207900D03*
X208426063Y-56081282D03*
X208581540Y-53852835D03*
X209430000Y-114070000D03*
X209450000Y-86586000D03*
X209520000Y-111064500D03*
X209650000Y-120310000D03*
X209756500Y-83768900D03*
X209886719Y-55356782D03*
X209900000Y-108869500D03*
X209943219Y-59086781D03*
X209968600Y-81394000D03*
X210187719Y-53070782D03*
X210530000Y-110319000D03*
X210808500Y-83034900D03*
X210938719Y-54622782D03*
X211205600Y-80600000D03*
X211468979Y-52218979D03*
X211600000Y-107740000D03*
X212930000Y-107390000D03*
X213671692Y-124371692D03*
X214051945Y-96692055D03*
X214134949Y-97688105D03*
X214145531Y-125413792D03*
X214154771Y-68153950D03*
X214184949Y-95388105D03*
X214200000Y-94250000D03*
X214200000Y-139500000D03*
X214213080Y-65750000D03*
X214283825Y-69196050D03*
X214379875Y-66850000D03*
X214400000Y-122000000D03*
X214600000Y-123113792D03*
X214640000Y-116370000D03*
X215000000Y-79870000D03*
X215120000Y-108510000D03*
X216710000Y-54940000D03*
X217150000Y-61560000D03*
X219820000Y-60180000D03*
X219920000Y-55030000D03*
X221100000Y-137800000D03*
X221550000Y-41370000D03*
X222180000Y-151970000D03*
X225280000Y-120390000D03*
X225540000Y-56680000D03*
X225570000Y-93450000D03*
X225680000Y-80900000D03*
X226000000Y-117400000D03*
X226000000Y-143100000D03*
X226050000Y-65200000D03*
X226100000Y-85530000D03*
X226200000Y-108300000D03*
X226250000Y-111700000D03*
X226320000Y-62400000D03*
X226600000Y-75190000D03*
X226600000Y-122500000D03*
X227370000Y-139880000D03*
X231350000Y-44730011D03*
X231590000Y-114680000D03*
X232680000Y-61420000D03*
X233850000Y-105630000D03*
X233970000Y-148040000D03*
X234170000Y-77960000D03*
X234180000Y-60260000D03*
X234340000Y-88390000D03*
X234790000Y-123650000D03*
X234880000Y-66440000D03*
X235140000Y-113570000D03*
X236070000Y-101330000D03*
X236950000Y-83650000D03*
X237000000Y-106950000D03*
X237130000Y-43730000D03*
X237180000Y-39180000D03*
X237780000Y-130100000D03*
X237840000Y-69830000D03*
X238850000Y-64720000D03*
X238850000Y-95700000D03*
X238850000Y-101150000D03*
X241100000Y-107320000D03*
X241320000Y-139580000D03*
X241470000Y-148790000D03*
X242590000Y-98610000D03*
X242750000Y-103000000D03*
X243080000Y-43910000D03*
X244720000Y-121630000D03*
X244860000Y-128230000D03*
X245090000Y-140590000D03*
X248190000Y-46370000D03*
X248460000Y-135280000D03*
X248730000Y-136850000D03*
X249820000Y-135940000D03*
X249950000Y-134910000D03*
X250320000Y-137240000D03*
X250580000Y-151770000D03*
X251170000Y-76790000D03*
X251450500Y-56390000D03*
X251450500Y-87190000D03*
X256490000Y-74520000D03*
X256520000Y-84940000D03*
X257000000Y-92270000D03*
X257200000Y-71830000D03*
X257220000Y-46760000D03*
X257390000Y-117970000D03*
X257390000Y-119500000D03*
X257470000Y-59280000D03*
X257710000Y-130730000D03*
X258300000Y-37270000D03*
X258830000Y-99410000D03*
X259560000Y-113880000D03*
X261100000Y-137090000D03*
X261320000Y-126770000D03*
X261520000Y-141090000D03*
X261760000Y-113880000D03*
X267140000Y-101330000D03*
X267710000Y-115200000D03*
X267800000Y-110690000D03*
X267800000Y-117080000D03*
X269270000Y-39580000D03*
X269610000Y-118030000D03*
X269950000Y-110480000D03*
X270110000Y-113840000D03*
X272460000Y-117150000D03*
X272470000Y-110660000D03*
X273610000Y-114280000D03*
X274320000Y-122630000D03*
X274420000Y-132100000D03*
X278100000Y-44670000D03*
D12*
X25900000Y-109230000D03*
X27079139Y-80786985D03*
X29120000Y-52020000D03*
X29150000Y-43600000D03*
X29400000Y-72750000D03*
X29400000Y-101400000D03*
X38350000Y-113350000D03*
X38500000Y-85050000D03*
X38600000Y-56350000D03*
X39350000Y-101400000D03*
X39650500Y-72844096D03*
X39700000Y-43600000D03*
X47100000Y-86000000D03*
X47150000Y-114650000D03*
X47350000Y-57300000D03*
X48650000Y-107240000D03*
X49240000Y-79000000D03*
X49360000Y-50360000D03*
X50200000Y-108450000D03*
X50900000Y-51950000D03*
X61600000Y-121250000D03*
X61850000Y-92850000D03*
X62150000Y-64400000D03*
X64900000Y-137500000D03*
X65098000Y-134008810D03*
X67712783Y-109031150D03*
X67779845Y-52189150D03*
X67873250Y-80719150D03*
X70898000Y-133958810D03*
X76450000Y-85950000D03*
X77500000Y-137800000D03*
X77798000Y-133958810D03*
X78110000Y-107170000D03*
X78270000Y-79100000D03*
X78420000Y-50300000D03*
X79950000Y-51650000D03*
X80100000Y-108500000D03*
X83600000Y-138000000D03*
X83648000Y-134008810D03*
X90700000Y-137500000D03*
X90800000Y-92900000D03*
X91000000Y-120850000D03*
X91350000Y-64400000D03*
X96200000Y-137500000D03*
X103310000Y-55160000D03*
X108870000Y-55090000D03*
X115482500Y-57117500D03*
X116214900Y-50243500D03*
X119747300Y-54707700D03*
X120250000Y-138000000D03*
X120311850Y-52666200D03*
X120500000Y-135250000D03*
X121347400Y-59787700D03*
X122190000Y-55330000D03*
X122720000Y-52160000D03*
X124670000Y-41910000D03*
X124750000Y-138250000D03*
X124800000Y-134900000D03*
X125502200Y-47556200D03*
X126420000Y-144550000D03*
X129200000Y-138300000D03*
X129400000Y-135300000D03*
X129797300Y-62007700D03*
X132500000Y-133600000D03*
X133800000Y-138400000D03*
X134320000Y-48230000D03*
X135047300Y-64757700D03*
X137000000Y-134300000D03*
X138000000Y-138300000D03*
X140950000Y-48300000D03*
X141200000Y-133900000D03*
X142000000Y-138300000D03*
X146500000Y-134900000D03*
X146500000Y-137800000D03*
X149700000Y-133600000D03*
X150800000Y-137700000D03*
X153700000Y-133800000D03*
X154900000Y-137600000D03*
X157800000Y-134000000D03*
X158900000Y-137700000D03*
X161800000Y-133600000D03*
X162900000Y-137600000D03*
X165900000Y-133800000D03*
X166750000Y-114424500D03*
X166800000Y-137700000D03*
X167150000Y-86250000D03*
X167800000Y-58500000D03*
X170000000Y-133800000D03*
X170800000Y-137700000D03*
X170950000Y-60900000D03*
X173900000Y-133800000D03*
X174800000Y-138000000D03*
X176050000Y-89800000D03*
X176325000Y-116875000D03*
X178200000Y-133900000D03*
X178400000Y-99150000D03*
X178650000Y-69650000D03*
X179000000Y-138200000D03*
X180450000Y-128160000D03*
X180550000Y-71500000D03*
X180550000Y-100440000D03*
X182100000Y-134100000D03*
X183300000Y-138300000D03*
X186715000Y-37085000D03*
X187700000Y-134800000D03*
X187900000Y-138400000D03*
X192100000Y-133100000D03*
X193500000Y-137400000D03*
X193850000Y-118250000D03*
X193900000Y-90750000D03*
X194050000Y-62050000D03*
X194350000Y-37100000D03*
X195672655Y-113577345D03*
X195900000Y-85179000D03*
X196450000Y-56900000D03*
X200600000Y-134100000D03*
X201100000Y-139100000D03*
X201400000Y-90750000D03*
X201640000Y-118750000D03*
X206600000Y-137300500D03*
X206700000Y-134700000D03*
X206950000Y-126600000D03*
X208360000Y-128130000D03*
X208760000Y-71890000D03*
X208850000Y-100110000D03*
X210250000Y-93250000D03*
X210300000Y-64950000D03*
X213100000Y-133800000D03*
X213700000Y-137200000D03*
X215700000Y-117600000D03*
X218100000Y-133700000D03*
X221250000Y-80100000D03*
X221350000Y-103400000D03*
X222000000Y-90800000D03*
X222100000Y-61850000D03*
X228744626Y-126638311D03*
X229200000Y-70040000D03*
X229450000Y-106200000D03*
X229850000Y-134800000D03*
X230060000Y-98340000D03*
X230250000Y-77800000D03*
X246340000Y-95830000D03*
X248130000Y-132040000D03*
X249260000Y-121000000D03*
X249540000Y-129630000D03*
X249750000Y-122630000D03*
X250570000Y-107240000D03*
X253300000Y-116700000D03*
X255540000Y-106470000D03*
X258670000Y-109220000D03*
X260950000Y-95830000D03*
X262250000Y-123680000D03*
X270230000Y-133230000D03*
D13*
%TO.C,J17*%
X181635000Y-39500000D03*
X181635000Y-42040000D03*
X184175000Y-39500000D03*
X184175000Y-42040000D03*
X186715000Y-39500000D03*
X186715000Y-42040000D03*
X189255000Y-39500000D03*
X189255000Y-42040000D03*
X191795000Y-39500000D03*
X191795000Y-42040000D03*
X194335000Y-39500000D03*
X194335000Y-42040000D03*
X196875000Y-39500000D03*
X196875000Y-42040000D03*
X199415000Y-39500000D03*
X199415000Y-42040000D03*
X201955000Y-39500000D03*
X201955000Y-42040000D03*
X204495000Y-39500000D03*
X204495000Y-42040000D03*
X207035000Y-39500000D03*
X207035000Y-42040000D03*
X209575000Y-39500000D03*
X209575000Y-42040000D03*
X212115000Y-39500000D03*
X212115000Y-42040000D03*
X214655000Y-39500000D03*
X214655000Y-42040000D03*
X217195000Y-39500000D03*
X217195000Y-42040000D03*
%TO.C,JP36*%
X225680000Y-39730000D03*
X225680000Y-42270000D03*
%TO.C,JP35*%
X229970000Y-39730000D03*
X229970000Y-42270000D03*
%TO.C,JP34*%
X234260000Y-39730000D03*
X234260000Y-42270000D03*
%TO.C,U20*%
X245880000Y-42620000D03*
X245880000Y-45160000D03*
X245880000Y-47700000D03*
X245880000Y-50240000D03*
X245880000Y-52780000D03*
X245880000Y-55320000D03*
X245880000Y-57860000D03*
X245880000Y-60400000D03*
X245880000Y-62940000D03*
X245880000Y-65480000D03*
X245880000Y-68020000D03*
X245880000Y-70560000D03*
X245880000Y-73100000D03*
X245880000Y-75640000D03*
X245880000Y-78180000D03*
X245880000Y-80720000D03*
X245880000Y-83260000D03*
X245880000Y-85800000D03*
X245880000Y-88340000D03*
X245880000Y-90880000D03*
X261120000Y-42620000D03*
X261120000Y-45160000D03*
X261120000Y-47700000D03*
X261120000Y-50240000D03*
X261120000Y-52780000D03*
X261120000Y-55320000D03*
X261120000Y-57860000D03*
X261120000Y-60400000D03*
X261120000Y-62940000D03*
X261120000Y-65480000D03*
X261120000Y-68020000D03*
X261120000Y-70560000D03*
X261120000Y-73100000D03*
X261120000Y-75640000D03*
X261120000Y-78180000D03*
X261120000Y-80720000D03*
X261120000Y-83260000D03*
X261120000Y-85800000D03*
X261120000Y-88340000D03*
X261120000Y-90880000D03*
%TO.C,J18*%
X271310000Y-46840000D03*
X271310000Y-49380000D03*
X271310000Y-51920000D03*
X271310000Y-54460000D03*
X271310000Y-57000000D03*
X271310000Y-59540000D03*
X271310000Y-62080000D03*
X271310000Y-64620000D03*
X271310000Y-67160000D03*
X271310000Y-69700000D03*
X271310000Y-72240000D03*
X271310000Y-74780000D03*
X271310000Y-77320000D03*
X271310000Y-79860000D03*
X271310000Y-82400000D03*
X271310000Y-84940000D03*
X271310000Y-87480000D03*
X271310000Y-90020000D03*
X271310000Y-92560000D03*
X271310000Y-95100000D03*
X273850000Y-46840000D03*
X273850000Y-49380000D03*
X273850000Y-51920000D03*
X273850000Y-54460000D03*
X273850000Y-57000000D03*
X273850000Y-59540000D03*
X273850000Y-62080000D03*
X273850000Y-64620000D03*
X273850000Y-67160000D03*
X273850000Y-69700000D03*
X273850000Y-72240000D03*
X273850000Y-74780000D03*
X273850000Y-77320000D03*
X273850000Y-79860000D03*
X273850000Y-82400000D03*
X273850000Y-84940000D03*
X273850000Y-87480000D03*
X273850000Y-90020000D03*
X273850000Y-92560000D03*
X273850000Y-95100000D03*
D14*
%TO.C,J14*%
X62800000Y-144600000D03*
X65340000Y-144600000D03*
X67880000Y-144600000D03*
%TO.C,J15*%
X75720000Y-144600000D03*
X78260000Y-144600000D03*
X80800000Y-144600000D03*
%TO.C,J16*%
X89510000Y-144800000D03*
X92050000Y-144800000D03*
%TO.C,J2*%
X128980000Y-144750000D03*
X131520000Y-144750000D03*
%TO.C,J3*%
X134880000Y-144750000D03*
X137420000Y-144750000D03*
%TO.C,J4*%
X140780000Y-144750000D03*
X143320000Y-144750000D03*
%TO.C,J5*%
X146680000Y-144750000D03*
X149220000Y-144750000D03*
%TO.C,J6*%
X152550000Y-144750000D03*
X155090000Y-144750000D03*
%TO.C,J7*%
X158480000Y-144750000D03*
X161020000Y-144750000D03*
%TO.C,J1*%
X161600000Y-40700000D03*
X164140000Y-40700000D03*
%TO.C,J8*%
X164350000Y-144750000D03*
%TO.C,J1*%
X166680000Y-40700000D03*
%TO.C,J8*%
X166890000Y-144750000D03*
%TO.C,J9*%
X170250000Y-144750000D03*
X172790000Y-144750000D03*
%TO.C,J10*%
X176150000Y-144750000D03*
X178690000Y-144750000D03*
%TO.C,J11*%
X186060000Y-144800000D03*
X188600000Y-144800000D03*
X191140000Y-144800000D03*
%TO.C,J12*%
X198860000Y-144900000D03*
X201400000Y-144900000D03*
X203940000Y-144900000D03*
%TO.C,J13*%
X212730000Y-144800000D03*
X215270000Y-144800000D03*
D15*
%TO.C,H6*%
X22529800Y-39816800D03*
%TO.C,H1*%
X22656800Y-149798800D03*
%TO.C,H5*%
X118541800Y-145379200D03*
%TO.C,H3*%
X175742600Y-39308800D03*
%TO.C,H4*%
X275056600Y-40223200D03*
%TO.C,H2*%
X275082000Y-142204200D03*
M02*
